PathFileType	4	(X/Y/Z)	C:/Users/Carlo/Dropbox/Carlos/SARAH/CongressoMarcha2025/WorkshopOpenSim/C3D/Caso03/pyCGM2 Walking02.c3d.trc
DataRate	CameraRate	NumFrames	NumMarkers	Units	OrigDataRate	OrigDataStartFrame	OrigNumFrames
100.000000	100.000000	2	163	mm	100.000000	0	510
Frame#	Time	PELO			PELA			PELL			PELP			LFEO			LFEA			LFEL			LFEP			LTIO			LTIA			LTIL			LTIP			LFOO			LFOA			LFOL			LFOP			LTOO			LTOA			LTOL			LTOP			RFEO			RFEA			RFEL			RFEP			RTIO			RTIA			RTIL			RTIP			RFOO			RFOA			RFOL			RFOP			RTOO			RTOA			RTOL			RTOP			PELVIS_CGM_2.3O			PELVIS_CGM_2.3A			PELVIS_CGM_2.3L			PELVIS_CGM_2.3P			LFEMUR_CGM_2.3O			LFEMUR_CGM_2.3A			LFEMUR_CGM_2.3L			LFEMUR_CGM_2.3P			LTIBIA_CGM_2.3O			LTIBIA_CGM_2.3A			LTIBIA_CGM_2.3L			LTIBIA_CGM_2.3P			LFOOT_CGM_2.3O			LFOOT_CGM_2.3A			LFOOT_CGM_2.3L			LFOOT_CGM_2.3P			LTOES_CGM_2.3O			LTOES_CGM_2.3A			LTOES_CGM_2.3L			LTOES_CGM_2.3P			RFEMUR_CGM_2.3O			RFEMUR_CGM_2.3A			RFEMUR_CGM_2.3L			RFEMUR_CGM_2.3P			RTIBIA_CGM_2.3O			RTIBIA_CGM_2.3A			RTIBIA_CGM_2.3L			RTIBIA_CGM_2.3P			RFOOT_CGM_2.3O			RFOOT_CGM_2.3A			RFOOT_CGM_2.3L			RFOOT_CGM_2.3P			RTOES_CGM_2.3O			RTOES_CGM_2.3A			RTOES_CGM_2.3L			RTOES_CGM_2.3P			LASI			RASI			LPSI			RPSI			LTHI			LTHAP			LTHAD			LKNE			LTIB			LTIAP			LTIAD			LANK			LHEE			LTOE			RTHI			RTHAP			RTHAD			RKNE			RTIB			RTIAP			RTIAD			RANK			RHEE			RTOE			LHipAngles			LKneeAngles			LAbsAnkleAngle			LAnkleAngles			RHipAngles			RKneeAngles			RAnkleAngles			RAbsAnkleAngle			LPelvisAngles			RPelvisAngles			LFootProgressAngles			RFootProgressAngles			LHipAngles_CGM_2.3			LKneeAngles_CGM_2.3			LAnkleAngles_CGM_2.3			RHipAngles_CGM_2.3			RKneeAngles_CGM_2.3			RAnkleAngles_CGM_2.3			LFootProgressAngles_CGM_2.3			RFootProgressAngles_CGM_2.3			LPelvisAngles_CGM_2.3			RPelvisAngles_CGM_2.3			LHipPower			LKneePower			LAnklePower			RHipPower			RKneePower			RAnklePower			LHipPower_CGM_2.3			LKneePower_CGM_2.3			LAnklePower_CGM_2.3			RHipPower_CGM_2.3			RKneePower_CGM_2.3			RAnklePower_CGM_2.3			RGroundReactionForce			RNormalisedGRF			LAnkleForce			RAnkleForce			RKneeForce			LKneeForce			RHipForce			LHipForce			LHipForce_CGM_2.3			LKneeForce_CGM_2.3			LAnkleForce_CGM_2.3			RHipForce_CGM_2.3			RKneeForce_CGM_2.3			RAnkleForce_CGM_2.3			RGroundReactionMoment			LAnkleMoment			RAnkleMoment			RKneeMoment			LKneeMoment			RHipMoment			LHipMoment			LHipMoment_CGM_2.3			LKneeMoment_CGM_2.3			LAnkleMoment_CGM_2.3			RHipMoment_CGM_2.3			RKneeMoment_CGM_2.3			RAnkleMoment_CGM_2.3			LHJC_CGM_2.3			LKJC_CGM_2.3			RHJC_CGM_2.3			RKJC_CGM_2.3			LAJC_CGM_2.3			RAJC_CGM_2.3			
		X1	Y1	Z1	X2	Y2	Z2	X3	Y3	Z3	X4	Y4	Z4	X5	Y5	Z5	X6	Y6	Z6	X7	Y7	Z7	X8	Y8	Z8	X9	Y9	Z9	X10	Y10	Z10	X11	Y11	Z11	X12	Y12	Z12	X13	Y13	Z13	X14	Y14	Z14	X15	Y15	Z15	X16	Y16	Z16	X17	Y17	Z17	X18	Y18	Z18	X19	Y19	Z19	X20	Y20	Z20	X21	Y21	Z21	X22	Y22	Z22	X23	Y23	Z23	X24	Y24	Z24	X25	Y25	Z25	X26	Y26	Z26	X27	Y27	Z27	X28	Y28	Z28	X29	Y29	Z29	X30	Y30	Z30	X31	Y31	Z31	X32	Y32	Z32	X33	Y33	Z33	X34	Y34	Z34	X35	Y35	Z35	X36	Y36	Z36	X37	Y37	Z37	X38	Y38	Z38	X39	Y39	Z39	X40	Y40	Z40	X41	Y41	Z41	X42	Y42	Z42	X43	Y43	Z43	X44	Y44	Z44	X45	Y45	Z45	X46	Y46	Z46	X47	Y47	Z47	X48	Y48	Z48	X49	Y49	Z49	X50	Y50	Z50	X51	Y51	Z51	X52	Y52	Z52	X53	Y53	Z53	X54	Y54	Z54	X55	Y55	Z55	X56	Y56	Z56	X57	Y57	Z57	X58	Y58	Z58	X59	Y59	Z59	X60	Y60	Z60	X61	Y61	Z61	X62	Y62	Z62	X63	Y63	Z63	X64	Y64	Z64	X65	Y65	Z65	X66	Y66	Z66	X67	Y67	Z67	X68	Y68	Z68	X69	Y69	Z69	X70	Y70	Z70	X71	Y71	Z71	X72	Y72	Z72	X73	Y73	Z73	X74	Y74	Z74	X75	Y75	Z75	X76	Y76	Z76	X77	Y77	Z77	X78	Y78	Z78	X79	Y79	Z79	X80	Y80	Z80	X81	Y81	Z81	X82	Y82	Z82	X83	Y83	Z83	X84	Y84	Z84	X85	Y85	Z85	X86	Y86	Z86	X87	Y87	Z87	X88	Y88	Z88	X89	Y89	Z89	X90	Y90	Z90	X91	Y91	Z91	X92	Y92	Z92	X93	Y93	Z93	X94	Y94	Z94	X95	Y95	Z95	X96	Y96	Z96	X97	Y97	Z97	X98	Y98	Z98	X99	Y99	Z99	X100	Y100	Z100	X101	Y101	Z101	X102	Y102	Z102	X103	Y103	Z103	X104	Y104	Z104	X105	Y105	Z105	X106	Y106	Z106	X107	Y107	Z107	X108	Y108	Z108	X109	Y109	Z109	X110	Y110	Z110	X111	Y111	Z111	X112	Y112	Z112	X113	Y113	Z113	X114	Y114	Z114	X115	Y115	Z115	X116	Y116	Z116	X117	Y117	Z117	X118	Y118	Z118	X119	Y119	Z119	X120	Y120	Z120	X121	Y121	Z121	X122	Y122	Z122	X123	Y123	Z123	X124	Y124	Z124	X125	Y125	Z125	X126	Y126	Z126	X127	Y127	Z127	X128	Y128	Z128	X129	Y129	Z129	X130	Y130	Z130	X131	Y131	Z131	X132	Y132	Z132	X133	Y133	Z133	X134	Y134	Z134	X135	Y135	Z135	X136	Y136	Z136	X137	Y137	Z137	X138	Y138	Z138	X139	Y139	Z139	X140	Y140	Z140	X141	Y141	Z141	X142	Y142	Z142	X143	Y143	Z143	X144	Y144	Z144	X145	Y145	Z145	X146	Y146	Z146	X147	Y147	Z147	X148	Y148	Z148	X149	Y149	Z149	X150	Y150	Z150	X151	Y151	Z151	X152	Y152	Z152	X153	Y153	Z153	X154	Y154	Z154	X155	Y155	Z155	X156	Y156	Z156	X157	Y157	Z157	X158	Y158	Z158	X159	Y159	Z159	X160	Y160	Z160	X161	Y161	Z161	X162	Y162	Z162	X163	Y163	Z163	

1	0	-3451.742187500002	870.4968261718755	-41.27797317504884	-3290.634033203127	853.188842773438	-46.74229812622072	-3456.503662109377	877.2940063476567	-203.1927642822267	-3434.227783203127	1031.554321289063	-35.03182983398439	-3322.483886718752	489.810485839844	-112.4658355712891	-2942.211914062501	621.3736572265627	-169.8290405273438	-3373.482910156252	461.8232421875002	-514.7368164062502	-3456.642333984377	873.3646850585942	-122.1426162719727	-3336.306640625002	83.76885986328128	-81.15901947021487	-2949.910644531251	72.14685821533206	-61.28816604614261	-3317.398925781252	53.40797424316409	-466.5842895507815	-3323.175781250002	469.4826965332034	-110.8984756469727	-3209.162597656252	69.11623382568362	-105.4648895263672	-3206.667480468752	250.8741149902345	-113.3342285156251	-3227.660400390627	61.54040527343753	-286.3088378906251	-3390.147949218752	72.39641571044925	-87.09004211425784	-3148.834472656252	68.02284240722659	-111.5898056030274	-3148.002685546877	128.6087951660157	-114.2127761840821	-3155.000244140627	65.49770355224612	-171.8710937500001	-3209.162841796877	69.1161804199219	-105.4649963378907	-3539.172851562502	447.8872375488284	64.53283691406253	-3130.343750000002	364.2445373535157	170.3289794921876	-3440.867431640627	401.5062561035159	-352.0185852050782	-3446.842041015627	867.628784179688	39.58656311035158	-3851.255859375002	196.5710449218751	50.52288436889651	-3621.485107421877	-93.7126159667969	139.4197998046876	-3785.390136718752	135.4042205810547	-319.4531555175782	-3554.896240234377	435.2254028320315	63.82698822021487	-3812.859375000002	74.58572387695315	71.50005340576175	-3649.152587890627	147.8045196533204	95.98083496093753	-3784.245117187502	70.34734344482425	-107.1713333129883	-3884.563720703127	240.0584564208986	56.09130859375003	-3788.957519531252	19.42812156677247	76.63629913330081	-3734.388671875002	43.83446502685548	84.79658508300784	-3779.419433593752	18.01539421081544	17.07917022705079	-3812.859130859377	74.58574676513675	71.50008392333987	-3461.070068359377	886.8779907226567	-51.70520019531253	-3301.531738281252	869.1354980468755	-53.32869720458987	-3460.770996093752	904.1706542968755	-211.3007965087892	-3443.255859375002	1045.484619140625	-34.48633956909181	-3326.449951171877	480.3120117187502	-113.109001159668	-2912.539794921876	615.2081298828127	-136.0814819335938	-3342.523925781252	455.5628662109377	-548.0520019531252	-3462.340820312502	894.119750976563	-131.6334533691407	-3327.820068359377	78.78160095214847	-84.05829620361331	-2937.816894531251	70.25284576416018	-183.5425872802735	-3427.659912109377	50.97767639160159	-473.0714416503909	-3326.449462890627	480.3117675781252	-113.1085968017579	-3195.360107421877	67.09709930419925	-83.03369903564456	-3195.871826171877	252.5280761718751	-93.43161773681643	-3211.798339843752	56.69475173950198	-267.7351074218751	-3380.353515625002	67.50854492187503	-66.59273529052737	-3133.699951171877	66.95989990234378	-88.51409912109378	-3133.870605468752	128.7701568603516	-91.9800720214844	-3139.179443359377	63.49245452880862	-150.0811614990235	-3195.364257812502	67.09704589843753	-83.0337829589844	-3539.649902343752	446.289001464844	64.60469818115237	-3112.048828125002	374.7817382812501	151.4057922363282	-3460.459472656252	395.4264221191409	-367.4049072265626	-3459.796142578127	879.636596679688	28.22231674194337	-3846.840087890627	191.6940002441407	50.31900024414065	-3613.503906250002	-97.98645019531256	195.3378753662111	-3743.995849609377	88.45821380615237	-321.3750000000001	-3539.645751953127	446.289001464844	64.60444641113284	-3802.540039062502	62.03450012207034	49.56439971923831	-3630.095947265627	139.1649475097657	80.17797851562503	-3766.888183593752	56.92573547363284	-138.3879699707032	-3877.475097656252	237.1002807617189	30.59185028076173	-3777.560058593752	3.679300069808962	55.88850021362308	-3720.078857421877	29.38942337036134	66.09301757812503	-3765.676025390627	1.97637975215912	-6.762222290039066	-3802.538330078127	62.03449630737308	49.564323425293	-3404.955566406252	959.4284057617192	-170.0144042968751	-3397.265625000002	948.450561523438	91.48650360107425	-3594.970458984377	975.297485351563	-97.63713836669928	-3597.447753906252	975.571166992188	4.740425586700441	-3381.979003906252	641.5577392578127	-197.4604492187501	-3325.651123046877	789.161010742188	-149.9691619873047	-3282.099853515627	637.4346923828127	-123.4322662353516	-3329.760986328127	485.8167724609377	-169.8686981201172	-3344.962890625002	245.0557250976564	-158.5898437500001	-3282.535644531252	387.9171447753909	-87.33369445800784	-3296.182128906252	210.8958129882814	-72.05798339843753	-3342.512695312502	73.89662170410159	-122.5476837158204	-3379.163330078127	48.10118103027347	-76.7294616699219	-3187.309326171877	45.31312942504884	-93.96392822265628	-3515.932373046877	663.670837402344	138.6812896728516	-3389.970214843752	731.5065917968752	79.960563659668	-3423.701904296877	560.2640380859377	81.20095062255862	-3552.302978515627	454.0821228027346	120.1697845458985	-3700.862060546877	348.3333435058595	126.9132766723633	-3635.462646484377	317.2848510742189	46.64896392822267	-3748.617919921877	228.7432556152345	49.81247329711917	-3867.280761718752	198.2594604492189	90.38945007324222	-3904.506835937502	223.6734771728517	38.23503494262697	-3829.384765625002	53.66344070434573	55.05321884155276	4.18820095062256	-7.318233489990238	25.40909957885744	0.1815710216760636	10.01994800567627	21.41515731811524	0	0	1.34874713420868	1.748767733573914	2.233055830001832	1.349792122840882	-5.304558753967287	-16.42001152038575	-6.399950504302982	-4.38179397583008	-0.3431329131126405	38.89051818847658	-1.704330682754517	9.805255889892582	-15.40227127075196	0	0	-15.17184638977051	2.207942008972169	-1.932880759239198	6.206308364868168	-2.207942008972169	1.932880759239198	6.206308364868168	2.49159336090088	-5.796215534210207	-88.96167755126956	7.80187559127808	-4.883623600006105	-23.42857933044434	8.274539947509769	-5.07219982147217	24.74830055236818	0.8736069798469548	-12.24330043792725	18.40299987792969	0.8228420019149785	9.284460067749027	0.4394479990005495	-10.81989860534668	-12.39270019531251	-4.203509807586672	-1.690019965171815	-9.604129791259769	40.41490173339845	-1.242849946022034	14.18879890441895	-16.69579887390137	-3.222130060195925	-174.9210052490235	-90.12739562988284	-170.7489929199219	5.689589977264406	23.17280006408692	173.8159942626954	0.1073570027947426	-173.6170043945313	-173.8159942626954	-0.1073570027947426	-173.6170043945313	nan	nan	nan	nan	nan	nan	nan	nan	nan	nan	nan	nan	nan	nan	nan	nan	nan	nan	nan	nan	nan	nan	nan	nan	nan	nan	nan	nan	nan	nan	nan	nan	nan	nan	nan	nan	nan	nan	nan	nan	nan	nan	nan	nan	nan	nan	nan	nan	nan	nan	nan	nan	nan	nan	nan	nan	nan	nan	nan	nan	0.1655900031328202	1.512580037117005	-0.437032997608185	-0.03430410102009775	0.5947369933128359	0.008242229931056503	-0.009667250327765945	-0.000410442997235805	0.1412930041551591	0.1552920043468476	1.497689962387085	0.5280519723892214	-0.1019039973616601	0.2976999878883363	0.5421820282936098	-0.05171560123562816	-0.1545069962739945	0.02917709946632387	nan	nan	nan	nan	nan	nan	nan	nan	nan	nan	nan	nan	nan	nan	nan	nan	nan	nan	nan	nan	nan	-202.4010009765626	31.04579925537111	1892.270019531251	-105.8349990844727	4.723670005798342	-473.3479919433596	-0.5805310010910036	4.734889984130861	-5.241469860076906	220.5469970703126	-35.45579910278322	-1455.949951171875	202.5099945068361	87.598503112793	-1295.900024414063	0.3848209977149966	106.6159973144532	198.3650054931642	-3462.340087890627	894.119995117188	-131.6329956054688	-3326.449951171877	480.3120117187502	-113.109001159668	-3459.790039062502	879.6370239257817	28.22240066528322	-3539.649902343752	446.289001464844	64.60469818115237	-3327.820068359377	78.78160095214847	-84.05829620361331	-3846.840087890627	191.6940002441407	50.31900024414065	
2	0.01	-3438.750732421877	872.790649414063	-43.33398056030275	-3277.608398437502	855.5239257812505	-47.8412322998047	-3442.529296875002	879.7973632812505	-205.2657623291017	-3421.310058593752	1033.843627929688	-36.7722511291504	-3316.203857421877	489.3836059570315	-114.1351394653321	-2933.772705078126	613.417907714844	-176.3472290039063	-3372.213378906252	460.4865417480471	-516.0509033203127	-3443.159667968752	875.7626953125005	-124.2230224609376	-3335.854248046877	83.76525878906253	-81.26007080078128	-2949.492675781251	66.201530456543	-67.02150726318362	-3323.095947265627	51.90285110473636	-466.7579040527346	-3317.187500000002	469.0740661621096	-112.4890670776368	-3208.775634765627	68.81007385253909	-105.7212448120118	-3206.119873046877	250.5031585693361	-114.9219360351563	-3227.656005859377	59.9333419799805	-286.4664001464845	-3389.719238281252	72.40312194824222	-86.99661254882815	-3148.461181640627	67.61241149902347	-111.9627685546876	-3147.575927734377	128.1768035888672	-115.0296478271485	-3154.754638671877	64.65351867675784	-172.2111511230469	-3208.775634765627	68.81009674072268	-105.7212219238282	-3511.914550781252	448.2313232421877	63.66447448730472	-3100.490478515627	378.8284912109376	165.3923950195313	-3416.270751953127	404.8433532714846	-352.7543945312501	-3434.341552734377	869.8183593750005	37.55510711669923	-3831.520996093752	210.0290069580079	47.70480728149415	-3611.054199218752	-90.33164978027347	115.6209564208985	-3778.951416015627	164.4371643066407	-324.5755004882814	-3528.097900390627	436.1697387695315	62.85641098022464	-3799.397705078127	86.78991699218753	71.68325805664065	-3631.522216796877	151.6194458007813	91.0535583496094	-3774.494628906252	75.76789855957034	-107.2540588378907	-3862.309570312502	255.4192657470704	52.54058837890628	-3778.427001953127	30.58012580871583	78.06415557861331	-3722.468505859377	52.19002532958987	84.52091217041018	-3770.125976562502	26.90615653991701	18.41838836669923	-3799.397705078127	86.78993225097659	71.68330383300784	-3447.419921875002	889.0100097656255	-53.27610015869143	-3287.828369140627	871.7163085937505	-54.45243072509768	-3446.724121093752	906.2876586914067	-212.8721008300782	-3430.100341796877	1047.667846679688	-36.02449417114259	-3320.459960937502	479.934997558594	-114.6569976806641	-2904.390869140626	606.5607910156252	-144.6349792480469	-3343.699462890627	453.426452636719	-549.172302246094	-3448.493896484377	896.239624023438	-133.2068328857422	-3327.919921875002	78.58339691162112	-84.10700225830081	-2938.918701171876	63.53959655761722	-186.6937713623047	-3431.334716796877	50.96574783325198	-472.1983337402346	-3320.455322265627	479.9351806640627	-114.6574249267579	-3195.459960937502	66.95770263671878	-83.21779632568362	-3196.062988281252	252.3311157226564	-94.59186553955081	-3212.168212890627	55.57553863525393	-267.8371582031251	-3380.428955078127	67.38141632080081	-66.50398254394534	-3133.800048828127	66.8164978027344	-88.78910064697268	-3134.000976562502	128.6075744628907	-92.58045196533206	-3139.369384765627	63.02244567871097	-150.3288269042969	-3195.456298828127	66.9577331542969	-83.21783447265628	-3510.939941406252	445.9790039062502	64.01090240478518	-3081.370117187502	389.8821716308596	152.4041137695313	-3428.554199218752	396.771667480469	-367.5926818847657	-3446.342773437502	881.779663085938	26.6555519104004	-3826.209960937502	201.4920043945314	48.91630172729495	-3602.482421875002	-95.9206237792969	193.4248657226564	-3726.470458984377	95.83881378173831	-322.9444274902345	-3510.949707031252	445.9794616699221	64.01077270507815	-3789.709960937502	69.43389892578128	50.96390151977542	-3613.219482421877	136.7321472167969	81.70974731445315	-3752.931152343752	58.63917922973636	-136.5301666259766	-3853.910156250002	248.2568969726564	28.07485961914064	-3768.310058593752	9.826259613037113	58.5934982299805	-3709.479980468752	32.25898742675783	68.84210205078128	-3756.050537109377	6.22802305221558	-3.904453277587892	-3789.710205078127	69.43386077880862	50.96382522583011	-3391.208984375002	961.9128417968755	-171.9755554199219	-3385.092041015627	950.5698852539067	90.16799926757815	-3582.082763671877	977.7766113281255	-99.01764678955084	-3584.472412109377	977.528198242188	3.440215826034548	-3373.609130859377	641.6791992187502	-198.8849639892579	-3314.036132812502	788.1994628906255	-153.5384216308594	-3273.437744140627	634.923034667969	-126.4855041503907	-3324.188720703127	485.2638244628909	-171.4349212646485	-3343.143554687502	244.781463623047	-159.040756225586	-3277.659179687502	386.726745605469	-88.74096679687503	-3294.045166015627	210.2464294433595	-72.94219970703128	-3342.821289062502	73.86018371582034	-122.5196151733399	-3379.396240234377	48.01377105712893	-76.72129058837893	-3187.398437500002	45.19384002685548	-94.05100250244143	-3495.494384765627	663.7493286132815	137.4054565429688	-3372.495117187502	734.5529785156252	78.32090759277347	-3400.319824218752	562.8545532226565	80.25787353515628	-3524.719970703127	454.0404968261721	119.4185485839844	-3674.576904296877	352.0863342285157	126.6596069335938	-3610.360595703127	320.4769897460939	45.9147300720215	-3723.304931640627	234.3852996826173	49.41636657714847	-3846.311035156252	210.3827362060548	88.07961273193362	-3881.992919921877	236.884002685547	35.785457611084	-3817.118164062502	64.02248382568362	56.30621719360354	4.191212654113771	-8.301914215087894	24.31332015991212	0.1352352797985077	9.820458412170414	21.17460632324219	0	0	2.098049879074098	1.413525700569153	3.018739461898805	2.100981950759889	-5.678050041198732	-15.49838542938233	-4.419135570526125	-4.548803806304933	2.063037395477296	43.05110931396486	-0.5010206103324892	5.410136699676515	-15.95157718658448	0	0	-15.87864589691163	2.319572210311891	-1.59438169002533	6.180539131164554	-2.319572210311891	1.59438169002533	6.180539131164554	2.914063453674317	-5.906952381134035	-88.86242675781253	6.178324222564701	-6.071069240570072	-20.45942878723145	8.268449783325199	-6.018899917602543	23.49599838256837	0.8036959767341618	-11.81610012054444	18.21129989624024	0.4999269843101504	9.725419998168949	1.338420033454895	-10.99440002441407	-12.24499988555909	-2.316740036010743	-2.411570072174073	-9.564259529113773	44.24110031127931	-0.7229040265083315	12.69079971313477	-18.08219909667969	-3.525449991226198	-174.8370056152344	-90.13120269775393	-170.686996459961	6.869299888610843	19.74900054931641	173.8209991455079	0.2498609870672227	-173.7790069580079	-173.8209991455079	-0.2498609870672227	-173.7790069580079	nan	nan	nan	nan	nan	nan	nan	nan	nan	nan	nan	nan	nan	nan	nan	nan	nan	nan	nan	nan	nan	nan	nan	nan	nan	nan	nan	nan	nan	nan	nan	nan	nan	nan	nan	nan	nan	nan	nan	nan	nan	nan	nan	nan	nan	nan	nan	nan	nan	nan	nan	nan	nan	nan	nan	nan	nan	nan	nan	nan	0.1374150067567826	1.536030054092408	-0.3749009966850282	-0.04401279985904695	0.6051679849624636	0.03254729881882669	-0.009917579591274265	0.000339827995048836	0.1441870033740998	0.1762010008096696	1.516929984092713	0.2873510122299195	-0.03601640090346338	0.3419420123100282	0.3790189921855929	-0.006938649807125333	-0.06811969727277759	0.07285039871931079	nan	nan	nan	nan	nan	nan	nan	nan	nan	nan	nan	nan	nan	nan	nan	nan	nan	nan	nan	nan	nan	-109.8450012207032	11.31900024414063	558.9829711914065	-39.72299957275392	0.9298999905586247	-148.4909973144532	-0.617187023162842	0.9636099934577946	-4.701580047607424	79.72560119628909	0.421736001968384	-516.6480102539065	40.16510009765626	24.79240036010744	-353.5419921875001	-0.5812669992446902	28.36370086669923	33.69979858398439	-3448.489990234377	896.2399902343755	-133.207992553711	-3320.459960937502	479.934997558594	-114.6569976806641	-3446.350097656252	881.7800292968755	26.65550041198732	-3510.939941406252	445.9790039062502	64.01090240478518	-3327.919921875002	78.58339691162112	-84.10700225830081	-3826.209960937502	201.4920043945314	48.91630172729495	
